<mxfile host="Electron" modified="2024-05-06T02:23:54.491Z" agent="Mozilla/5.0 (Macintosh; Intel Mac OS X 10_15_7) AppleWebKit/537.36 (KHTML, like Gecko) draw.io/22.1.21 Chrome/120.0.6099.109 Electron/28.1.0 Safari/537.36" etag="C8cBvsEvpN6KuNBKRUVv" version="22.1.21" type="device">
  <diagram name="Page-1" id="jiJs165MkEIHk_JBlLu-">
    <mxGraphModel dx="1634" dy="784" grid="1" gridSize="10" guides="1" tooltips="1" connect="1" arrows="1" fold="1" page="1" pageScale="1" pageWidth="2400" pageHeight="1400" background="none" math="0" shadow="1">
      <root>
        <mxCell id="0" />
        <mxCell id="1" parent="0" />
        <mxCell id="0IP2hJJKUos7zzMxNQ7z-20" value="Retrieve News Job" style="swimlane;whiteSpace=wrap;html=1;" parent="1" vertex="1">
          <mxGeometry x="500" y="90" width="480" height="720" as="geometry">
            <mxRectangle x="500" y="90" width="170" height="30" as="alternateBounds" />
          </mxGeometry>
        </mxCell>
        <mxCell id="G5hDzauUQ3-BTy-gxbXj-38" value="Retrieve News Step (Tasklet)" style="swimlane;whiteSpace=wrap;html=1;" vertex="1" parent="0IP2hJJKUos7zzMxNQ7z-20">
          <mxGeometry x="40" y="70" width="390" height="310" as="geometry">
            <mxRectangle x="40" y="70" width="150" height="30" as="alternateBounds" />
          </mxGeometry>
        </mxCell>
        <mxCell id="0IP2hJJKUos7zzMxNQ7z-9" value="" style="rounded=1;whiteSpace=wrap;html=1;movable=1;resizable=1;rotatable=1;deletable=1;editable=1;locked=0;connectable=1;" parent="G5hDzauUQ3-BTy-gxbXj-38" vertex="1">
          <mxGeometry x="230" y="160" width="140" height="131" as="geometry" />
        </mxCell>
        <mxCell id="0IP2hJJKUos7zzMxNQ7z-12" style="edgeStyle=orthogonalEdgeStyle;rounded=0;orthogonalLoop=1;jettySize=auto;html=1;entryX=0.5;entryY=0;entryDx=0;entryDy=0;" parent="G5hDzauUQ3-BTy-gxbXj-38" source="0IP2hJJKUos7zzMxNQ7z-2" target="0IP2hJJKUos7zzMxNQ7z-9" edge="1">
          <mxGeometry relative="1" as="geometry" />
        </mxCell>
        <mxCell id="0IP2hJJKUos7zzMxNQ7z-2" value="News Site" style="rounded=1;whiteSpace=wrap;html=1;" parent="G5hDzauUQ3-BTy-gxbXj-38" vertex="1">
          <mxGeometry x="240" y="49.5" width="120" height="35" as="geometry" />
        </mxCell>
        <mxCell id="0IP2hJJKUos7zzMxNQ7z-5" value="News 1" style="rounded=1;whiteSpace=wrap;html=1;movable=1;resizable=1;rotatable=1;deletable=1;editable=1;locked=0;connectable=1;" parent="G5hDzauUQ3-BTy-gxbXj-38" vertex="1">
          <mxGeometry x="240" y="174" width="120" height="20" as="geometry" />
        </mxCell>
        <mxCell id="0IP2hJJKUos7zzMxNQ7z-6" value="News 2" style="rounded=1;whiteSpace=wrap;html=1;movable=1;resizable=1;rotatable=1;deletable=1;editable=1;locked=0;connectable=1;" parent="G5hDzauUQ3-BTy-gxbXj-38" vertex="1">
          <mxGeometry x="240" y="201" width="120" height="20" as="geometry" />
        </mxCell>
        <mxCell id="0IP2hJJKUos7zzMxNQ7z-7" value="News 3" style="rounded=1;whiteSpace=wrap;html=1;movable=1;resizable=1;rotatable=1;deletable=1;editable=1;locked=0;connectable=1;" parent="G5hDzauUQ3-BTy-gxbXj-38" vertex="1">
          <mxGeometry x="240" y="227" width="120" height="20" as="geometry" />
        </mxCell>
        <mxCell id="0IP2hJJKUos7zzMxNQ7z-8" value="News ..." style="rounded=1;whiteSpace=wrap;html=1;movable=1;resizable=1;rotatable=1;deletable=1;editable=1;locked=0;connectable=1;" parent="G5hDzauUQ3-BTy-gxbXj-38" vertex="1">
          <mxGeometry x="240" y="253" width="120" height="20" as="geometry" />
        </mxCell>
        <mxCell id="0IP2hJJKUos7zzMxNQ7z-10" value="Asks for news" style="text;html=1;strokeColor=none;fillColor=none;align=center;verticalAlign=middle;whiteSpace=wrap;rounded=0;" parent="G5hDzauUQ3-BTy-gxbXj-38" vertex="1">
          <mxGeometry x="146" y="44" width="80" height="30" as="geometry" />
        </mxCell>
        <mxCell id="0IP2hJJKUos7zzMxNQ7z-15" value="Collected news" style="rounded=1;whiteSpace=wrap;html=1;" parent="G5hDzauUQ3-BTy-gxbXj-38" vertex="1">
          <mxGeometry x="20" y="205" width="110" height="40" as="geometry" />
        </mxCell>
        <mxCell id="0IP2hJJKUos7zzMxNQ7z-16" style="edgeStyle=orthogonalEdgeStyle;rounded=0;orthogonalLoop=1;jettySize=auto;html=1;entryX=1;entryY=0.5;entryDx=0;entryDy=0;" parent="G5hDzauUQ3-BTy-gxbXj-38" source="0IP2hJJKUos7zzMxNQ7z-9" target="0IP2hJJKUos7zzMxNQ7z-15" edge="1">
          <mxGeometry relative="1" as="geometry" />
        </mxCell>
        <mxCell id="0IP2hJJKUos7zzMxNQ7z-18" value="News with &lt;br&gt;no format" style="text;html=1;strokeColor=none;fillColor=none;align=center;verticalAlign=middle;whiteSpace=wrap;rounded=0;" parent="G5hDzauUQ3-BTy-gxbXj-38" vertex="1">
          <mxGeometry x="135" y="191" width="98" height="37" as="geometry" />
        </mxCell>
        <mxCell id="G5hDzauUQ3-BTy-gxbXj-37" style="rounded=0;orthogonalLoop=1;jettySize=auto;html=1;" edge="1" parent="G5hDzauUQ3-BTy-gxbXj-38" source="G5hDzauUQ3-BTy-gxbXj-34" target="0IP2hJJKUos7zzMxNQ7z-2">
          <mxGeometry relative="1" as="geometry" />
        </mxCell>
        <mxCell id="G5hDzauUQ3-BTy-gxbXj-34" value="Goes to Internet" style="rounded=1;whiteSpace=wrap;html=1;" vertex="1" parent="G5hDzauUQ3-BTy-gxbXj-38">
          <mxGeometry x="20" y="47.5" width="110" height="40" as="geometry" />
        </mxCell>
        <mxCell id="G5hDzauUQ3-BTy-gxbXj-39" value="Clean-up Step&amp;nbsp;(Tasklet)" style="swimlane;whiteSpace=wrap;html=1;" vertex="1" parent="0IP2hJJKUos7zzMxNQ7z-20">
          <mxGeometry x="40" y="420" width="390" height="110" as="geometry">
            <mxRectangle x="40" y="420" width="150" height="30" as="alternateBounds" />
          </mxGeometry>
        </mxCell>
        <mxCell id="G5hDzauUQ3-BTy-gxbXj-42" value="Prepares fields" style="rounded=1;whiteSpace=wrap;html=1;" vertex="1" parent="G5hDzauUQ3-BTy-gxbXj-39">
          <mxGeometry x="240" y="49.5" width="120" height="35" as="geometry" />
        </mxCell>
        <mxCell id="G5hDzauUQ3-BTy-gxbXj-47" value="News&lt;br&gt;1st version" style="text;html=1;strokeColor=none;fillColor=none;align=center;verticalAlign=middle;whiteSpace=wrap;rounded=0;" vertex="1" parent="G5hDzauUQ3-BTy-gxbXj-39">
          <mxGeometry x="146" y="69" width="80" height="30" as="geometry" />
        </mxCell>
        <mxCell id="G5hDzauUQ3-BTy-gxbXj-51" style="rounded=0;orthogonalLoop=1;jettySize=auto;html=1;" edge="1" parent="G5hDzauUQ3-BTy-gxbXj-39" source="G5hDzauUQ3-BTy-gxbXj-52" target="G5hDzauUQ3-BTy-gxbXj-42">
          <mxGeometry relative="1" as="geometry" />
        </mxCell>
        <mxCell id="G5hDzauUQ3-BTy-gxbXj-52" value="Removes &lt;br&gt;&lt;b&gt;null&lt;/b&gt; values&amp;nbsp;" style="rounded=1;whiteSpace=wrap;html=1;" vertex="1" parent="G5hDzauUQ3-BTy-gxbXj-39">
          <mxGeometry x="20" y="47.5" width="110" height="40" as="geometry" />
        </mxCell>
        <mxCell id="G5hDzauUQ3-BTy-gxbXj-53" style="edgeStyle=orthogonalEdgeStyle;rounded=0;orthogonalLoop=1;jettySize=auto;html=1;entryX=0.5;entryY=0;entryDx=0;entryDy=0;" edge="1" parent="0IP2hJJKUos7zzMxNQ7z-20" source="0IP2hJJKUos7zzMxNQ7z-15" target="G5hDzauUQ3-BTy-gxbXj-52">
          <mxGeometry relative="1" as="geometry" />
        </mxCell>
        <mxCell id="G5hDzauUQ3-BTy-gxbXj-54" value="Create News CSV Step&amp;nbsp;(Tasklet)" style="swimlane;whiteSpace=wrap;html=1;startSize=30;" vertex="1" parent="0IP2hJJKUos7zzMxNQ7z-20">
          <mxGeometry x="30" y="570" width="400" height="110" as="geometry">
            <mxRectangle x="30" y="570" width="220" height="30" as="alternateBounds" />
          </mxGeometry>
        </mxCell>
        <mxCell id="G5hDzauUQ3-BTy-gxbXj-59" style="rounded=0;orthogonalLoop=1;jettySize=auto;html=1;exitX=0;exitY=0.5;exitDx=0;exitDy=0;entryX=1;entryY=0.5;entryDx=0;entryDy=0;" edge="1" parent="G5hDzauUQ3-BTy-gxbXj-54" source="G5hDzauUQ3-BTy-gxbXj-55" target="G5hDzauUQ3-BTy-gxbXj-58">
          <mxGeometry relative="1" as="geometry" />
        </mxCell>
        <mxCell id="G5hDzauUQ3-BTy-gxbXj-55" value="Fixes ID field" style="rounded=1;whiteSpace=wrap;html=1;" vertex="1" parent="G5hDzauUQ3-BTy-gxbXj-54">
          <mxGeometry x="250" y="46.5" width="120" height="35" as="geometry" />
        </mxCell>
        <mxCell id="G5hDzauUQ3-BTy-gxbXj-56" value="Writes &lt;br&gt;file" style="text;html=1;strokeColor=none;fillColor=none;align=center;verticalAlign=middle;whiteSpace=wrap;rounded=0;" vertex="1" parent="G5hDzauUQ3-BTy-gxbXj-54">
          <mxGeometry x="180" y="48.75" width="56" height="30" as="geometry" />
        </mxCell>
        <mxCell id="G5hDzauUQ3-BTy-gxbXj-58" value="&lt;b&gt;cleanup_data_v1.csv&lt;/b&gt;" style="rounded=1;whiteSpace=wrap;html=1;" vertex="1" parent="G5hDzauUQ3-BTy-gxbXj-54">
          <mxGeometry x="20" y="47.5" width="140" height="32.5" as="geometry" />
        </mxCell>
        <mxCell id="G5hDzauUQ3-BTy-gxbXj-60" style="edgeStyle=orthogonalEdgeStyle;rounded=0;orthogonalLoop=1;jettySize=auto;html=1;entryX=0.5;entryY=0;entryDx=0;entryDy=0;" edge="1" parent="0IP2hJJKUos7zzMxNQ7z-20" source="G5hDzauUQ3-BTy-gxbXj-42" target="G5hDzauUQ3-BTy-gxbXj-55">
          <mxGeometry relative="1" as="geometry" />
        </mxCell>
        <mxCell id="0IP2hJJKUos7zzMxNQ7z-22" value="News Process Job" style="swimlane;whiteSpace=wrap;html=1;" parent="1" vertex="1">
          <mxGeometry x="1060" y="70" width="480" height="620" as="geometry">
            <mxRectangle x="790" y="1140" width="220" height="30" as="alternateBounds" />
          </mxGeometry>
        </mxCell>
        <mxCell id="0IP2hJJKUos7zzMxNQ7z-29" value="News Reader Step (Chunk)" style="swimlane;whiteSpace=wrap;html=1;" parent="0IP2hJJKUos7zzMxNQ7z-22" vertex="1">
          <mxGeometry x="50" y="60" width="380" height="120" as="geometry">
            <mxRectangle x="50" y="60" width="200" height="30" as="alternateBounds" />
          </mxGeometry>
        </mxCell>
        <mxCell id="G5hDzauUQ3-BTy-gxbXj-64" style="edgeStyle=orthogonalEdgeStyle;rounded=0;orthogonalLoop=1;jettySize=auto;html=1;entryX=1;entryY=0.5;entryDx=0;entryDy=0;" edge="1" parent="0IP2hJJKUos7zzMxNQ7z-29" source="0IP2hJJKUos7zzMxNQ7z-37" target="G5hDzauUQ3-BTy-gxbXj-63">
          <mxGeometry relative="1" as="geometry" />
        </mxCell>
        <mxCell id="0IP2hJJKUos7zzMxNQ7z-37" value="FlatFileItemReader&lt;br&gt;(reader)" style="rounded=1;whiteSpace=wrap;html=1;" parent="0IP2hJJKUos7zzMxNQ7z-29" vertex="1">
          <mxGeometry x="210" y="57.5" width="150" height="40" as="geometry" />
        </mxCell>
        <mxCell id="G5hDzauUQ3-BTy-gxbXj-63" value="This file" style="rounded=1;whiteSpace=wrap;html=1;" vertex="1" parent="0IP2hJJKUos7zzMxNQ7z-29">
          <mxGeometry x="40" y="57.5" width="80" height="40" as="geometry" />
        </mxCell>
        <mxCell id="G5hDzauUQ3-BTy-gxbXj-65" value="Reads file" style="text;html=1;strokeColor=none;fillColor=none;align=center;verticalAlign=middle;whiteSpace=wrap;rounded=0;" vertex="1" parent="0IP2hJJKUos7zzMxNQ7z-29">
          <mxGeometry x="141" y="54" width="60" height="30" as="geometry" />
        </mxCell>
        <mxCell id="G5hDzauUQ3-BTy-gxbXj-67" value="News Process Step (Chunk)" style="swimlane;whiteSpace=wrap;html=1;" vertex="1" parent="0IP2hJJKUos7zzMxNQ7z-22">
          <mxGeometry x="51" y="250" width="380" height="120" as="geometry">
            <mxRectangle x="50" y="60" width="200" height="30" as="alternateBounds" />
          </mxGeometry>
        </mxCell>
        <mxCell id="G5hDzauUQ3-BTy-gxbXj-68" style="edgeStyle=orthogonalEdgeStyle;rounded=0;orthogonalLoop=1;jettySize=auto;html=1;entryX=1;entryY=0.5;entryDx=0;entryDy=0;" edge="1" parent="G5hDzauUQ3-BTy-gxbXj-67" source="G5hDzauUQ3-BTy-gxbXj-69" target="G5hDzauUQ3-BTy-gxbXj-70">
          <mxGeometry relative="1" as="geometry" />
        </mxCell>
        <mxCell id="G5hDzauUQ3-BTy-gxbXj-69" value="Process Item&amp;nbsp;&lt;br&gt;(processor)" style="rounded=1;whiteSpace=wrap;html=1;" vertex="1" parent="G5hDzauUQ3-BTy-gxbXj-67">
          <mxGeometry x="250" y="57.5" width="110" height="40" as="geometry" />
        </mxCell>
        <mxCell id="G5hDzauUQ3-BTy-gxbXj-70" value="Some metadata is added" style="rounded=1;whiteSpace=wrap;html=1;" vertex="1" parent="G5hDzauUQ3-BTy-gxbXj-67">
          <mxGeometry x="15" y="57.5" width="110" height="40" as="geometry" />
        </mxCell>
        <mxCell id="G5hDzauUQ3-BTy-gxbXj-71" value="Fix bad news" style="text;html=1;strokeColor=none;fillColor=none;align=center;verticalAlign=middle;whiteSpace=wrap;rounded=0;" vertex="1" parent="G5hDzauUQ3-BTy-gxbXj-67">
          <mxGeometry x="138" y="53" width="99" height="30" as="geometry" />
        </mxCell>
        <mxCell id="G5hDzauUQ3-BTy-gxbXj-72" style="edgeStyle=orthogonalEdgeStyle;rounded=0;orthogonalLoop=1;jettySize=auto;html=1;entryX=0.5;entryY=0;entryDx=0;entryDy=0;" edge="1" parent="0IP2hJJKUos7zzMxNQ7z-22" source="G5hDzauUQ3-BTy-gxbXj-63" target="G5hDzauUQ3-BTy-gxbXj-69">
          <mxGeometry relative="1" as="geometry">
            <Array as="points">
              <mxPoint x="130" y="220" />
              <mxPoint x="356" y="220" />
            </Array>
          </mxGeometry>
        </mxCell>
        <mxCell id="G5hDzauUQ3-BTy-gxbXj-73" value="News CSV Writer Step (Chunk)" style="swimlane;whiteSpace=wrap;html=1;" vertex="1" parent="0IP2hJJKUos7zzMxNQ7z-22">
          <mxGeometry x="51" y="420" width="380" height="160" as="geometry">
            <mxRectangle x="50" y="60" width="200" height="30" as="alternateBounds" />
          </mxGeometry>
        </mxCell>
        <mxCell id="G5hDzauUQ3-BTy-gxbXj-74" style="edgeStyle=orthogonalEdgeStyle;rounded=0;orthogonalLoop=1;jettySize=auto;html=1;entryX=1;entryY=0.5;entryDx=0;entryDy=0;" edge="1" parent="G5hDzauUQ3-BTy-gxbXj-73" source="G5hDzauUQ3-BTy-gxbXj-75" target="G5hDzauUQ3-BTy-gxbXj-76">
          <mxGeometry relative="1" as="geometry" />
        </mxCell>
        <mxCell id="G5hDzauUQ3-BTy-gxbXj-75" value="Write Item&amp;nbsp;&lt;br&gt;(CSV writer)" style="rounded=1;whiteSpace=wrap;html=1;" vertex="1" parent="G5hDzauUQ3-BTy-gxbXj-73">
          <mxGeometry x="250" y="57.5" width="110" height="40" as="geometry" />
        </mxCell>
        <mxCell id="G5hDzauUQ3-BTy-gxbXj-76" value="&lt;b style=&quot;border-color: var(--border-color);&quot;&gt;cleanup_data_v2.csv&lt;/b&gt;" style="rounded=1;whiteSpace=wrap;html=1;" vertex="1" parent="G5hDzauUQ3-BTy-gxbXj-73">
          <mxGeometry x="15" y="57.5" width="135" height="40" as="geometry" />
        </mxCell>
        <mxCell id="G5hDzauUQ3-BTy-gxbXj-77" value="Validated" style="text;html=1;strokeColor=none;fillColor=none;align=center;verticalAlign=middle;whiteSpace=wrap;rounded=0;" vertex="1" parent="G5hDzauUQ3-BTy-gxbXj-73">
          <mxGeometry x="158" y="54" width="99" height="30" as="geometry" />
        </mxCell>
        <mxCell id="0IP2hJJKUos7zzMxNQ7z-46" value="Generates a second CSV versioned file which is &lt;br&gt;already validated &amp;amp; formatted with metadata" style="text;html=1;strokeColor=none;fillColor=none;align=center;verticalAlign=middle;whiteSpace=wrap;rounded=1;" parent="G5hDzauUQ3-BTy-gxbXj-73" vertex="1">
          <mxGeometry x="26" y="119" width="324" height="30" as="geometry" />
        </mxCell>
        <mxCell id="G5hDzauUQ3-BTy-gxbXj-78" style="edgeStyle=orthogonalEdgeStyle;rounded=0;orthogonalLoop=1;jettySize=auto;html=1;exitX=0.5;exitY=1;exitDx=0;exitDy=0;entryX=0.5;entryY=0;entryDx=0;entryDy=0;" edge="1" parent="0IP2hJJKUos7zzMxNQ7z-22" source="G5hDzauUQ3-BTy-gxbXj-70" target="G5hDzauUQ3-BTy-gxbXj-75">
          <mxGeometry relative="1" as="geometry">
            <Array as="points">
              <mxPoint x="121" y="390" />
              <mxPoint x="356" y="390" />
            </Array>
          </mxGeometry>
        </mxCell>
        <mxCell id="G5hDzauUQ3-BTy-gxbXj-1" value="Operative System Job" style="swimlane;whiteSpace=wrap;html=1;" vertex="1" parent="1">
          <mxGeometry x="70" y="560" width="180" height="120" as="geometry">
            <mxRectangle x="560" y="910" width="170" height="30" as="alternateBounds" />
          </mxGeometry>
        </mxCell>
        <mxCell id="G5hDzauUQ3-BTy-gxbXj-2" value="Delete Existing Files Step (tasklet)" style="rounded=1;whiteSpace=wrap;html=1;" vertex="1" parent="G5hDzauUQ3-BTy-gxbXj-1">
          <mxGeometry x="20" y="40" width="130" height="60" as="geometry" />
        </mxCell>
        <mxCell id="G5hDzauUQ3-BTy-gxbXj-3" value="Spring Boot Application" style="swimlane;whiteSpace=wrap;html=1;" vertex="1" parent="1">
          <mxGeometry x="220" y="300" width="190" height="220" as="geometry">
            <mxRectangle x="220" y="590" width="180" height="30" as="alternateBounds" />
          </mxGeometry>
        </mxCell>
        <mxCell id="G5hDzauUQ3-BTy-gxbXj-9" style="edgeStyle=orthogonalEdgeStyle;rounded=0;orthogonalLoop=1;jettySize=auto;html=1;entryX=0.5;entryY=0;entryDx=0;entryDy=0;dashed=1;dashPattern=1 1;" edge="1" parent="G5hDzauUQ3-BTy-gxbXj-3" source="G5hDzauUQ3-BTy-gxbXj-5" target="G5hDzauUQ3-BTy-gxbXj-6">
          <mxGeometry relative="1" as="geometry" />
        </mxCell>
        <mxCell id="G5hDzauUQ3-BTy-gxbXj-5" value="It does its &lt;br&gt;own magic" style="rounded=1;whiteSpace=wrap;html=1;" vertex="1" parent="G5hDzauUQ3-BTy-gxbXj-3">
          <mxGeometry x="30" y="40" width="130" height="60" as="geometry" />
        </mxCell>
        <mxCell id="G5hDzauUQ3-BTy-gxbXj-6" value="ApplicationJobsLauncher&lt;br&gt;(CommandLineRunner)" style="rounded=1;whiteSpace=wrap;html=1;" vertex="1" parent="G5hDzauUQ3-BTy-gxbXj-3">
          <mxGeometry x="15" y="140" width="160" height="50" as="geometry" />
        </mxCell>
        <mxCell id="G5hDzauUQ3-BTy-gxbXj-7" value="Actor" style="shape=umlActor;verticalLabelPosition=bottom;verticalAlign=top;html=1;outlineConnect=0;" vertex="1" parent="1">
          <mxGeometry x="40" y="310" width="70" height="120" as="geometry" />
        </mxCell>
        <mxCell id="G5hDzauUQ3-BTy-gxbXj-8" value="" style="endArrow=classic;html=1;rounded=0;entryX=0;entryY=0.5;entryDx=0;entryDy=0;" edge="1" parent="1" source="G5hDzauUQ3-BTy-gxbXj-7" target="G5hDzauUQ3-BTy-gxbXj-5">
          <mxGeometry width="50" height="50" relative="1" as="geometry">
            <mxPoint x="150" y="215" as="sourcePoint" />
            <mxPoint x="190" y="165" as="targetPoint" />
          </mxGeometry>
        </mxCell>
        <mxCell id="G5hDzauUQ3-BTy-gxbXj-10" style="rounded=0;orthogonalLoop=1;jettySize=auto;html=1;entryX=0.5;entryY=0;entryDx=0;entryDy=0;edgeStyle=orthogonalEdgeStyle;strokeColor=#1e23b8;strokeWidth=2;" edge="1" parent="1" source="G5hDzauUQ3-BTy-gxbXj-6" target="G5hDzauUQ3-BTy-gxbXj-1">
          <mxGeometry relative="1" as="geometry">
            <Array as="points">
              <mxPoint x="160" y="465" />
            </Array>
          </mxGeometry>
        </mxCell>
        <mxCell id="G5hDzauUQ3-BTy-gxbXj-11" value="Calls 1st Job" style="text;html=1;strokeColor=none;fillColor=none;align=center;verticalAlign=middle;whiteSpace=wrap;rounded=0;" vertex="1" parent="1">
          <mxGeometry x="80" y="490" width="80" height="30" as="geometry" />
        </mxCell>
        <mxCell id="G5hDzauUQ3-BTy-gxbXj-61" style="edgeStyle=orthogonalEdgeStyle;rounded=0;orthogonalLoop=1;jettySize=auto;html=1;entryX=0;entryY=0.5;entryDx=0;entryDy=0;strokeColor=#e47f0c;strokeWidth=2;" edge="1" parent="1" source="G5hDzauUQ3-BTy-gxbXj-6" target="G5hDzauUQ3-BTy-gxbXj-34">
          <mxGeometry relative="1" as="geometry">
            <Array as="points">
              <mxPoint x="430" y="465" />
              <mxPoint x="430" y="228" />
            </Array>
          </mxGeometry>
        </mxCell>
        <mxCell id="G5hDzauUQ3-BTy-gxbXj-62" value="Calls 2nd Job" style="text;html=1;strokeColor=none;fillColor=none;align=center;verticalAlign=middle;whiteSpace=wrap;rounded=0;" vertex="1" parent="1">
          <mxGeometry x="370" y="200" width="80" height="30" as="geometry" />
        </mxCell>
        <mxCell id="0IP2hJJKUos7zzMxNQ7z-45" style="edgeStyle=orthogonalEdgeStyle;rounded=0;orthogonalLoop=1;jettySize=auto;html=1;exitX=0.5;exitY=1;exitDx=0;exitDy=0;" parent="1" edge="1">
          <mxGeometry relative="1" as="geometry">
            <mxPoint x="960" y="2020" as="sourcePoint" />
            <mxPoint x="960" y="2020" as="targetPoint" />
          </mxGeometry>
        </mxCell>
        <mxCell id="G5hDzauUQ3-BTy-gxbXj-66" style="edgeStyle=orthogonalEdgeStyle;rounded=0;orthogonalLoop=1;jettySize=auto;html=1;entryX=0.5;entryY=1;entryDx=0;entryDy=0;strokeColor=#d20f0f;strokeWidth=2;" edge="1" parent="1" source="G5hDzauUQ3-BTy-gxbXj-63" target="G5hDzauUQ3-BTy-gxbXj-58">
          <mxGeometry relative="1" as="geometry">
            <Array as="points">
              <mxPoint x="1030" y="208" />
              <mxPoint x="1030" y="790" />
              <mxPoint x="620" y="790" />
            </Array>
          </mxGeometry>
        </mxCell>
        <mxCell id="G5hDzauUQ3-BTy-gxbXj-81" value="Calls 3rd Job" style="text;html=1;strokeColor=none;fillColor=none;align=center;verticalAlign=middle;whiteSpace=wrap;rounded=0;" vertex="1" parent="1">
          <mxGeometry x="880" y="30" width="80" height="30" as="geometry" />
        </mxCell>
        <mxCell id="G5hDzauUQ3-BTy-gxbXj-82" style="edgeStyle=orthogonalEdgeStyle;rounded=0;orthogonalLoop=1;jettySize=auto;html=1;exitX=0;exitY=0.25;exitDx=0;exitDy=0;entryX=0.5;entryY=0;entryDx=0;entryDy=0;strokeWidth=2;strokeColor=#1dd110;" edge="1" parent="1" source="G5hDzauUQ3-BTy-gxbXj-6" target="G5hDzauUQ3-BTy-gxbXj-63">
          <mxGeometry relative="1" as="geometry">
            <Array as="points">
              <mxPoint x="235" y="450" />
              <mxPoint x="200" y="450" />
              <mxPoint x="200" y="30" />
              <mxPoint x="1190" y="30" />
            </Array>
          </mxGeometry>
        </mxCell>
      </root>
    </mxGraphModel>
  </diagram>
</mxfile>
